# This file uses centimeters as units for non-parametric coordinates.

mtllib Mug_Generic_A.mtl
g default
v 7.804318 0.103905 3.199580
v 7.780932 0.103905 -3.256042
v 3.199581 0.103905 -7.804320
v -3.256041 0.103905 -7.780932
v -7.804318 0.103905 -3.199580
v -7.780931 0.103905 3.256043
v -3.199581 0.103905 7.804320
v 3.256040 0.103905 7.780932
v 5.206126 1.699163 2.134384
v 5.190525 1.699163 -2.172050
v 2.134385 1.699163 -5.206127
v -2.172049 1.699163 -5.190526
v -5.206126 1.699163 -2.134384
v -5.190525 1.699163 2.172050
v -2.134384 1.699163 5.206126
v 2.172049 1.699163 5.190525
v 9.521251 24.651933 3.903481
v 9.450834 24.849998 3.874613
v 9.257863 24.933936 3.795498
v 9.230120 24.933934 -3.862475
v 9.422515 24.849995 -3.942986
v 9.492719 24.651930 -3.972365
v -9.521251 24.651933 -3.903478
v -9.450837 24.849998 -3.874611
v -9.257863 24.933936 -3.795495
v -9.492719 24.651933 3.972366
v -9.422515 24.849998 3.942988
v -9.230120 24.933936 3.862476
v -3.903479 24.651930 9.521252
v -3.874613 24.849995 9.450834
v -3.795498 24.933934 9.257863
v 3.972363 24.651933 9.492720
v 3.942986 24.849998 9.422517
v 3.862475 24.933936 9.230121
v 7.913190 24.933928 3.244212
v 7.719984 24.860047 3.165005
v 7.626190 24.675917 3.126552
v 7.889476 24.933928 -3.301465
v 7.696851 24.860047 -3.220858
v 7.603338 24.675917 -3.181726
v 3.244212 24.933928 -7.913190
v 3.165005 24.860047 -7.719984
v 3.126552 24.675917 -7.626190
v 3.795498 24.933936 -9.257863
v 3.874613 24.849998 -9.450834
v 3.903479 24.651933 -9.521252
v -3.301465 24.933928 -7.889476
v -3.220858 24.860047 -7.696851
v -3.181726 24.675917 -7.603338
v -3.862475 24.933934 -9.230120
v -3.942986 24.849995 -9.422515
v -3.972365 24.651930 -9.492719
v -7.913190 24.933928 -3.244212
v -7.719984 24.860047 -3.165005
v -7.626190 24.675917 -3.126552
v -7.889475 24.933928 3.301466
v -7.696848 24.860047 3.220858
v -7.603337 24.675917 3.181727
v -3.244212 24.933928 7.913190
v -3.165005 24.860047 7.719984
v -3.126552 24.675917 7.626190
v 3.301461 24.933928 7.889476
v 3.220855 24.860047 7.696851
v 3.181723 24.675917 7.603339
v -8.875692 21.182076 -2.007146
v -8.909386 21.734695 -1.211320
v -13.259340 20.728858 -1.211267
v -12.986764 20.231644 -2.007145
v -8.924529 21.734695 1.193111
v -8.894870 21.182280 1.990590
v -13.006157 20.229912 1.990590
v -13.274972 20.728084 1.192565
v -15.944292 17.352326 1.990589
v -16.435876 17.633134 1.191120
v -16.423720 17.633134 -1.213318
v -15.927405 17.354489 -2.007147
v -17.410750 13.991548 -1.202857
v -16.860818 13.909027 -2.002494
v -16.828758 13.924396 1.995094
v -17.393953 14.001137 1.201520
v -16.839644 10.199601 -1.213034
v -16.330553 10.413417 -2.007150
v -16.347652 10.414927 1.990588
v -16.851800 10.199599 1.191407
v -7.821811 4.378751 1.990590
v -7.852719 3.805927 1.192592
v -12.352335 5.466859 1.188952
v -12.086924 5.952595 1.989768
v -14.604098 7.791348 -2.007147
v -15.043003 7.458181 -1.213156
v -14.622518 7.793260 1.990590
v -15.055748 7.458181 1.191741
v -7.837493 3.805927 -1.211839
v -7.802705 4.379169 -2.007146
v -12.094562 5.982266 -2.007902
v -12.353170 5.484062 -1.214908
v -8.798882 19.694884 -1.501248
v -8.816678 20.045051 -2.007146
v -12.307095 18.954413 -1.501328
v -12.475153 19.272927 -2.007143
v -8.823418 20.044186 1.990590
v -8.801109 19.694880 1.484805
v -12.305973 18.954445 1.484718
v -12.473894 19.272929 1.990590
v -14.763739 16.609104 -1.501405
v -15.075226 16.790639 -2.007149
v -14.762607 16.609102 1.484647
v -15.073659 16.790877 1.990587
v -15.472678 13.935001 -1.511906
v -15.831605 13.989681 -2.013890
v -15.435887 13.944004 1.473899
v -15.782761 14.001797 1.983530
v -15.179652 11.223629 -1.501436
v -15.506455 11.103211 -2.007172
v -15.178545 11.223627 1.484613
v -15.505061 11.102996 1.990563
v -13.684243 8.679686 -1.501355
v -13.972880 8.481694 -2.007148
v -13.683793 8.679685 1.484707
v -13.972390 8.481745 1.990590
v -7.745221 5.486679 -2.007146
v -7.726980 5.845738 -1.501212
v -11.469912 7.016754 -1.498582
v -11.637161 6.702745 -2.005664
v -7.729316 5.845739 1.484839
v -7.752166 5.488072 1.990590
v -11.449176 6.994112 1.487310
v -11.609418 6.672469 1.991859
vt 0.478553 0.000000
vt 0.125000 0.000000
vt 0.521447 0.000000
vt 0.780330 0.000000
vt 0.219670 0.000000
vt 0.875000 0.988643
vt 0.750000 0.988643
vt 0.875000 0.000000
vt -0.125000 0.000000
vt 0.000000 0.000000
vt -0.125000 0.988643
vt 0.125000 0.000000
vt 0.000000 0.988643
vt 0.250000 0.000000
vt 0.125000 0.988643
vt 0.250000 0.988643
vt 0.375000 0.000000
vt 0.375000 0.988643
vt 0.500000 0.000000
vt 0.625000 0.000000
vt 0.500000 0.988643
vt 0.750000 0.000000
vt 0.625000 0.988643
vt 0.875000 1.000000
vt 0.750000 1.000000
vt 0.780330 1.000000
vt 0.875000 1.000000
vt 0.780330 1.000000
vt 0.521447 1.000000
vt 0.250000 1.000000
vt 0.521447 1.000000
vt 0.125000 1.000000
vt 0.250000 1.000000
vt 0.125000 1.000000
vt 0.219670 1.000000
vt 0.625000 1.000000
vt 0.219670 1.000000
vt 0.750000 1.000000
vt 0.625000 1.000000
vt 0.875000 1.000000
vt 0.750000 1.000000
vt 0.875000 1.000000
vt 0.780330 1.000000
vt 0.521447 1.000000
vt 0.780330 1.000000
vt 0.521447 1.000000
vt 0.250000 1.000000
vt 0.125000 1.000000
vt 0.250000 1.000000
vt 0.219670 1.000000
vt 0.125000 1.000000
vt 0.219670 1.000000
vt 0.625000 1.000000
vt 0.625000 1.000000
vt 0.750000 1.000000
vt 0.750000 1.000000
vt -0.125000 1.000000
vt 0.875000 1.000000
vt 0.875000 1.000000
vt 0.250000 1.000000
vt 0.250000 1.000000
vt 0.250000 1.000000
vt 0.375000 1.000000
vt 0.125000 1.000000
vt 0.125000 1.000000
vt 0.500000 1.000000
vt 0.219670 1.000000
vt 0.219670 1.000000
vt 0.625000 1.000000
vt 0.625000 1.000000
vt 0.750000 1.000000
vt 0.750000 1.000000
vt 0.750000 1.000000
vt 0.750000 1.000000
vt 0.875000 1.000000
vt 0.875000 1.000000
vt 0.875000 1.000000
vt 0.875000 1.000000
vt 0.780330 1.000000
vt 0.780330 1.000000
vt 0.780330 1.000000
vt 0.780330 1.000000
vt 0.000000 1.000000
vt 0.780330 1.000000
vt 0.780330 1.000000
vt 0.521447 1.000000
vt 0.521447 1.000000
vt 0.521447 1.000000
vt 0.521447 1.000000
vt 0.125000 1.000000
vt 0.521447 1.000000
vt 0.521447 1.000000
vt 0.125000 1.000000
vt 0.250000 1.000000
vt 0.250000 1.000000
vt 0.250000 1.000000
vt 0.250000 1.000000
vt 0.125000 1.000000
vt 0.125000 1.000000
vt 0.125000 1.000000
vt 0.125000 1.000000
vt 0.219670 1.000000
vt 0.219670 1.000000
vt 0.219670 1.000000
vt 0.219670 1.000000
vt 0.625000 1.000000
vt 0.625000 1.000000
vt 0.625000 1.000000
vt 0.625000 1.000000
vt 0.078554 0.499976
vt 0.078486 0.583381
vt 0.195396 0.583333
vt -0.108245 0.501508
vt -0.062115 0.580551
vt -0.108687 0.577108
vt -0.108561 0.586340
vt -0.062046 0.663911
vt -0.108561 0.660387
vt -0.108405 0.669936
vt -0.062045 0.747244
vt -0.108460 0.743851
vt 0.078574 0.666714
vt 0.125000 0.669812
vt 1.062377 0.752761
vt 1.108802 0.756690
vt 1.108802 0.831468
vt 0.875390 0.831633
vt 0.125000 0.833333
vt 0.125000 0.865696
vt 0.921739 0.833285
vt 0.874496 0.865734
vt -0.062094 0.997768
vt -0.108632 0.994402
vt -0.109125 0.910822
vt -0.109023 0.907802
vt -0.109198 0.878227
vt 0.124673 0.878368
vt 0.124754 0.908586
vt 0.124992 0.997036
vt 0.124763 0.911712
vt -0.061772 0.499905
vt 0.078458 0.582579
vt 0.078574 0.665983
vt -0.062131 0.583524
vt -0.062046 0.666857
vt 0.078575 0.749316
vt 0.921757 0.750689
vt 1.062359 0.833142
vt -0.062503 0.909076
vt 0.078497 0.999445
vt 0.078223 0.909594
vt -0.062675 0.877588
vt 0.078170 0.877645
vt -0.062808 0.848585
vt 0.078066 0.848251
vt 0.332084 0.500000
vt 0.593371 0.500000
vt 0.406639 1.000000
vt 0.668836 1.000000
vt 0.593365 0.583330
vt 0.406637 0.500000
vt 0.593361 0.666667
vt 0.406631 0.583333
vt 0.593354 0.750000
vt 0.406627 0.666667
vt 0.593359 0.833333
vt 0.406620 0.750000
vt 0.406634 0.900955
vt 0.593373 1.000000
vt 0.406630 0.865734
vt 0.593368 0.900954
vt 0.406625 0.833333
vt 0.593364 0.865734
vt 0.330190 0.583281
vt 0.192729 0.500000
vt 0.807296 0.500000
vt 0.804820 0.583340
vt 0.667811 0.500000
vt 0.195135 0.583238
vt 0.327931 0.666985
vt 0.669708 0.583211
vt 0.803208 0.666196
vt 0.196853 0.666110
vt 0.325932 0.749023
vt 0.671470 0.666907
vt 0.804319 0.751955
vt 0.328041 0.831295
vt 0.195932 0.751970
vt 0.673542 0.749035
vt 0.804606 0.834579
vt 0.330994 1.000000
vt 0.195257 1.000000
vt 0.203197 0.900728
vt 0.676607 0.901520
vt 0.804795 1.000000
vt 0.323287 0.901416
vt 0.199758 0.866282
vt 0.797046 0.900665
vt 0.673773 0.865105
vt 0.325687 0.865065
vt 0.195651 0.834622
vt 0.800439 0.866233
vt 0.671420 0.831366
vn 0.000000 -1.000000 0.000000
vn 0.000000 -1.000000 0.000000
vn 0.000000 -1.000000 0.000000
vn 0.000000 1.000000 0.000000
vn 0.000000 1.000000 0.000000
vn 0.000000 1.000000 0.000000
vn 0.000000 1.000000 0.000000
vn 0.000000 1.000000 0.000000
vn 0.000000 1.000000 0.000000
vn 0.000000 1.000000 0.000000
vn 0.000000 1.000000 0.000000
vn 0.000000 1.000000 0.000000
vn 0.000000 1.000000 0.000000
vn 0.000000 1.000000 0.000000
vn 0.000000 1.000000 0.000000
vn 0.000000 -1.000000 0.000000
vn 0.000000 -1.000000 0.000000
vn 0.000000 -1.000000 0.000000
vn 0.000000 -1.000000 0.000000
vn 0.000000 -1.000000 0.000000
vn 0.000000 -1.000000 0.000000
vn 0.000000 -1.000000 0.000000
vn 0.000000 -1.000000 0.000000
vn 0.000000 -1.000000 0.000000
vn 0.000000 -1.000000 0.000000
vn 0.000000 -1.000000 0.000000
vn 0.075794 0.996639 0.031073
vn 0.700380 0.653467 0.287139
vn 0.698282 0.653468 -0.292202
vn 0.075567 0.996639 -0.031622
vn 0.922881 -0.071662 0.378359
vn 0.920115 -0.071662 -0.385035
vn 0.922628 -0.075376 0.378255
vn 0.919863 -0.075376 -0.384930
vn 0.378255 -0.075376 -0.922628
vn 0.378359 -0.071662 -0.922881
vn -0.384930 -0.075376 -0.919863
vn -0.385036 -0.071662 -0.920115
vn -0.922628 -0.075376 -0.378255
vn -0.922881 -0.071662 -0.378359
vn -0.919863 -0.075376 0.384930
vn -0.920115 -0.071662 0.385035
vn -0.378359 -0.071662 0.922881
vn -0.378255 -0.075376 0.922628
vn 0.384930 -0.075376 0.919863
vn 0.385036 -0.071662 0.920115
vn -0.024190 0.999656 0.010122
vn -0.024263 0.999656 -0.009948
vn 0.031074 0.996639 -0.075793
vn -0.009947 0.999656 0.024262
vn 0.010123 0.999656 0.024189
vn -0.031622 0.996639 -0.075565
vn -0.075793 0.996639 -0.031073
vn 0.024263 0.999656 0.009947
vn -0.075566 0.996639 0.031621
vn 0.024190 0.999656 -0.010122
vn 0.009947 0.999656 -0.024261
vn -0.031074 0.996639 0.075794
vn 0.031622 0.996639 0.075566
vn -0.010123 0.999656 -0.024189
vn -0.918821 0.117769 -0.376694
vn -0.916067 0.117769 0.383342
vn -0.916568 0.113104 0.383551
vn -0.919323 0.113104 -0.376900
vn -0.376694 0.117769 0.918821
vn -0.376900 0.113104 0.919323
vn 0.383342 0.117769 0.916067
vn 0.383551 0.113104 0.916568
vn 0.918821 0.117769 0.376694
vn 0.919323 0.113104 0.376900
vn 0.916067 0.117769 -0.383342
vn 0.916568 0.113104 -0.383551
vn 0.376694 0.117769 -0.918821
vn 0.376900 0.113104 -0.919323
vn -0.383551 0.113104 -0.916568
vn -0.383342 0.117769 -0.916068
vn 0.292207 0.653470 0.698278
vn 0.287142 0.653470 -0.700377
vn -0.700379 0.653469 -0.287137
vn -0.698282 0.653468 0.292203
vn -0.287143 0.653471 0.700375
vn -0.308623 0.942731 -0.126529
vn -0.128761 0.942733 -0.307693
vn -0.632546 0.453354 -0.627978
vn -0.632546 0.453354 -0.627978
vn -0.891324 0.453355 0.003229
vn -0.891324 0.453355 0.003229
vn -0.307698 0.942731 0.128762
vn -0.627978 0.453355 0.632545
vn -0.627978 0.453355 0.632545
vn -0.126528 0.942733 0.308619
vn -0.292205 0.653470 -0.698279
vn 0.003229 0.453353 0.891325
vn 0.003229 0.453353 0.891325
vn 0.128761 0.942734 0.307691
vn 0.632545 0.453354 0.627978
vn 0.632545 0.453354 0.627978
vn 0.308623 0.942732 0.126526
vn 0.891324 0.453355 -0.003229
vn 0.891324 0.453355 -0.003229
vn 0.307697 0.942732 -0.128762
vn 0.627979 0.453352 -0.632546
vn 0.627979 0.453352 -0.632546
vn 0.126528 0.942733 -0.308618
vn -0.003229 0.453347 -0.891329
vn -0.003229 0.453347 -0.891329
vn -0.222478 0.961927 -0.158744
vn -0.112612 0.487044 -0.866087
vn -0.247383 0.454788 -0.855552
vn -0.472114 0.866984 -0.159525
vn -0.452715 0.278428 -0.847070
vn -0.841200 0.516487 -0.160074
vn -0.112650 0.486491 0.866393
vn -0.222670 0.962427 0.155413
vn -0.473760 0.866867 0.155218
vn -0.248183 0.454699 0.855368
vn -0.842202 0.515896 0.156679
vn -0.450863 0.275900 0.848883
vn -0.985560 0.057201 0.159374
vn -0.525792 0.027231 0.850177
vn -0.536993 0.027112 -0.843151
vn -0.986075 0.056640 -0.156358
vn -0.497029 -0.179645 -0.848935
vn -0.928563 -0.336094 -0.157518
vn -0.929291 -0.335003 0.155534
vn -0.495205 -0.176484 0.850662
vn -0.374260 -0.361797 -0.853834
vn -0.715886 -0.679254 -0.161625
vn -0.717044 -0.679660 0.154628
vn -0.374763 -0.361794 0.853614
vn -0.343342 -0.927534 0.147641
vn -0.193243 -0.523176 0.830027
vn -0.236403 -0.468874 0.851041
vn -0.446155 -0.881335 0.155547
vn -0.234621 -0.464672 -0.853834
vn -0.445656 -0.880056 -0.163992
vn -0.193905 -0.520790 -0.831372
vn -0.343323 -0.925926 -0.157451
vn 0.058262 -0.276038 -0.959379
vn 0.205445 -0.972987 -0.105299
vn 0.456781 -0.882286 -0.113681
vn 0.116758 -0.225083 -0.967319
vn 0.840958 -0.528270 -0.117139
vn 0.218338 -0.138331 -0.966019
vn 0.205484 -0.973036 0.104777
vn 0.058630 -0.277526 0.958928
vn 0.116161 -0.223768 0.967696
vn 0.456758 -0.882334 0.113398
vn 0.219591 -0.137137 0.965906
vn 0.841582 -0.528447 0.111729
vn 0.990485 -0.075255 -0.115226
vn 0.277050 -0.022703 -0.960587
vn 0.289376 -0.023901 0.956917
vn 0.991969 -0.076061 0.101051
vn 0.941948 0.316649 -0.111658
vn 0.269610 0.092327 -0.958533
vn 0.271560 0.090610 0.958147
vn 0.942774 0.316198 0.105816
vn 0.744980 0.658414 -0.107220
vn 0.233862 0.202058 -0.951042
vn 0.231154 0.199729 0.952195
vn 0.744802 0.658432 0.108335
vn 0.428203 0.897478 -0.105712
vn 0.134090 0.279726 -0.950670
vn 0.131292 0.274918 0.952461
vn 0.426703 0.897718 0.109671
vn 0.295290 0.949393 -0.107040
vn 0.087203 0.279386 -0.956211
vn 0.086058 0.279148 0.956384
vn 0.294615 0.949167 0.110835
s off
g Mug_Office_A
usemtl lambert5SG
f 8/1/1 2/8/2 1/22/3
f 11/45/4 12/46/5 15/52/6 16/54/7
f 16/54/8 9/41/9 10/42/10 11/45/11
f 15/52/12 12/46/13 13/49/14 14/51/15
f 6/2/16 5/14/17 4/3/18
f 3/4/19 7/5/20 6/2/21 4/3/22
f 3/4/23 2/8/24 8/1/25 7/5/26
s 1
f 19/38/27 18/56/28 21/59/29 20/24/30
f 18/56/28 17/7/31 22/6/32 21/59/29
f 17/7/31 1/22/33 2/8/34 22/6/32
f 2/9/34 3/10/35 46/13/36 22/11/32
f 4/12/37 52/15/38 46/13/36 3/10/35
f 5/14/39 23/16/40 52/15/38 4/12/37
f 23/16/40 5/14/39 6/17/41 26/18/42
f 29/21/43 26/18/42 6/17/41 7/19/44
f 8/20/45 32/23/46 29/21/43 7/19/44
f 8/20/45 1/22/33 17/7/31 32/23/46
f 19/38/27 20/24/30 38/27/47 35/25/48
f 44/26/49 41/28/50 38/27/47 20/24/30
f 47/31/51 41/28/50 44/26/49 50/29/52
f 50/29/52 25/30/53 53/33/54 47/31/51
f 25/30/53 28/32/55 56/34/56 53/33/54
f 59/37/57 56/34/56 28/32/55 31/35/58
f 31/35/58 34/36/59 62/39/60 59/37/57
f 34/36/59 19/38/27 35/25/48 62/39/60
s 2
f 37/55/61 40/40/62 10/42/63 9/41/64
f 10/42/63 40/40/62 43/43/65 11/45/66
f 43/43/65 49/44/67 12/46/68 11/45/66
f 12/46/68 49/44/67 55/47/69 13/49/70
f 55/47/69 58/48/71 14/51/72 13/49/70
f 61/50/73 15/52/74 14/51/72 58/48/71
f 16/54/75 15/52/74 61/50/73 64/53/76
f 16/54/75 64/53/76 37/55/61 9/41/64
s 1
f 17/7/31 18/56/28 33/70/77 32/23/46
f 18/56/28 19/38/27 34/36/59 33/70/77
f 20/24/30 21/58/29 45/85/78 44/26/49
f 21/57/29 22/11/32 46/13/36 45/83/78
f 25/30/53 24/62/79 27/65/80 28/32/55
f 24/61/79 23/16/40 26/18/42 27/63/80
f 28/32/55 27/64/80 30/68/81 31/35/58
f 27/63/80 26/18/42 29/21/43 30/66/81
f 31/35/58 30/67/81 33/69/77 34/36/59
f 30/66/81 29/21/43 32/23/46 33/70/77
f 35/25/48 36/74/82 63/108/83 62/39/60
s 2
f 36/73/84 37/55/61 64/53/76 63/109/85
f 37/55/61 36/72/86 39/77/87 40/40/62
s 1
f 36/71/82 35/25/48 38/27/47 39/78/88
s 2
f 40/40/62 39/76/89 42/81/90 43/43/65
s 1
f 39/75/88 38/27/47 41/28/50 42/82/91
f 44/26/49 45/84/78 51/92/92 50/29/52
f 45/83/78 46/13/36 52/15/38 51/93/92
s 2
f 43/43/65 42/80/93 48/88/94 49/44/67
s 1
f 42/79/91 41/28/50 47/31/51 48/89/95
f 23/16/40 24/61/79 51/90/92 52/15/38
f 24/60/79 25/30/53 50/29/52 51/91/92
s 2
f 49/44/67 48/87/96 54/96/97 55/47/69
s 1
f 48/86/95 47/31/51 53/33/54 54/97/98
s 2
f 55/47/69 54/95/99 57/100/100 58/48/71
s 1
f 54/94/98 53/33/54 56/34/56 57/101/101
s 2
f 58/48/71 57/99/102 60/104/103 61/50/73
s 1
f 57/98/101 56/34/56 59/37/57 60/105/104
s 2
f 61/50/73 60/103/105 63/106/106 64/53/76
s 1
f 60/102/104 59/37/57 62/39/60 63/107/83
s 3
f 66/110/107 65/175/108 68/179/109 67/142/110
f 67/111/110 68/112/109 76/183/111 75/143/112
f 70/113/113 69/141/114 72/114/115 71/115/116
f 71/116/116 72/144/115 74/117/117 73/118/118
f 73/119/118 74/145/117 80/120/119 79/121/120
f 75/122/112 76/123/111 78/188/121 77/146/122
f 77/124/122 78/125/121 82/126/123 81/148/124
f 79/186/120 80/147/119 84/130/125 83/127/126
f 81/128/124 82/201/123 89/197/127 90/129/128
f 83/190/126 84/130/125 92/131/129 91/202/130
f 86/132/131 85/133/132 88/134/133 87/149/134
f 87/149/134 88/135/133 91/136/130 92/152/129
f 90/153/128 89/137/127 95/138/135 96/151/136
f 94/139/137 93/150/138 96/151/136 95/140/135
f 72/114/115 69/141/114 66/110/107 67/142/110
f 75/143/112 74/117/117 72/144/115 67/111/110
f 74/145/117 75/122/112 77/146/122 80/120/119
f 80/147/119 77/124/122 81/148/124 84/130/125
f 86/132/131 87/149/134 96/151/136 93/150/138
f 96/151/136 87/149/134 92/152/129 90/153/128
f 90/153/128 92/152/129 84/154/125 81/155/124
f 98/156/139 97/161/140 99/163/141 100/174/142
f 100/174/142 99/163/141 105/165/143 106/180/144
f 102/157/145 101/178/146 104/181/147 103/160/148
f 103/160/148 104/181/147 108/185/149 107/162/150
f 106/180/144 105/165/143 109/167/151 110/184/152
f 107/162/150 108/185/149 112/189/153 111/164/154
f 110/184/152 109/167/151 113/172/155 114/187/156
f 111/164/154 112/189/153 116/203/157 115/166/158
f 114/187/156 113/172/155 117/170/159 118/200/160
f 115/166/158 116/203/157 120/199/161 119/173/162
f 118/200/160 117/170/159 123/168/163 124/196/164
f 119/173/162 120/199/161 128/194/165 127/171/166
f 122/158/167 121/191/168 124/196/164 123/168/163
f 126/159/169 125/169/170 127/171/166 128/194/165
f 102/157/145 103/160/148 99/163/141 97/161/140
f 107/162/150 105/165/143 99/163/141 103/160/148
f 107/162/150 111/164/154 109/167/151 105/165/143
f 115/166/158 113/172/155 109/167/151 111/164/154
f 123/168/163 127/171/166 125/169/170 122/158/167
f 117/170/159 119/173/162 127/171/166 123/168/163
f 113/172/155 115/166/158 119/173/162 117/170/159
f 100/174/142 68/179/109 65/175/108 98/156/139
f 70/176/113 71/177/116 104/181/147 101/178/146
f 76/183/111 68/179/109 100/174/142 106/180/144
f 104/181/147 71/177/116 73/182/118 108/185/149
f 76/183/111 106/180/144 110/184/152 78/188/121
f 112/189/153 108/185/149 73/182/118 79/186/120
f 110/184/152 114/187/156 82/201/123 78/188/121
f 112/189/153 79/186/120 83/190/126 116/203/157
f 124/196/164 121/191/168 94/192/137 95/193/135
f 126/159/169 128/194/165 88/198/133 85/195/132
f 124/196/164 95/193/135 89/197/127 118/200/160
f 88/198/133 128/194/165 120/199/161 91/202/130
f 118/200/160 89/197/127 82/201/123 114/187/156
f 91/202/130 120/199/161 116/203/157 83/190/126
