# Blender v3.0.1 OBJ File: 'button_pressed.blend'
# www.blender.org
mtllib button_pressed.mtl
o Cylinder
v -0.107892 -0.000000 0.058075
v -0.105819 0.021049 0.058075
v -0.099679 0.041288 0.058075
v -0.089709 0.059942 0.058075
v -0.076291 0.076291 0.058075
v -0.059942 0.089709 0.058075
v -0.041288 0.099679 0.058075
v -0.021049 0.105819 0.058075
v 0.000000 0.107892 0.058075
v 0.021049 0.105819 0.058075
v 0.041288 0.099679 0.058075
v 0.059942 0.089709 0.058075
v 0.076291 0.076291 0.058075
v 0.089709 0.059942 0.058075
v 0.099679 0.041288 0.058075
v 0.105819 0.021049 0.058075
v 0.107892 -0.000000 0.058075
v 0.105819 -0.021049 0.058075
v 0.099679 -0.041288 0.058075
v 0.089709 -0.059942 0.058075
v 0.076291 -0.076291 0.058075
v 0.059942 -0.089709 0.058075
v 0.041288 -0.099679 0.058075
v 0.021049 -0.105819 0.058075
v 0.000000 -0.107892 0.058075
v -0.021049 -0.105819 0.058075
v -0.041288 -0.099679 0.058075
v -0.059942 -0.089709 0.058075
v -0.076291 -0.076291 0.058075
v -0.089709 -0.059942 0.058075
v -0.099679 -0.041288 0.058075
v -0.105819 -0.021049 0.058075
v -0.107892 -0.000000 0.048249
v -0.105819 0.021049 0.048249
v -0.099679 0.041288 0.048249
v -0.089709 0.059942 0.048249
v -0.076291 0.076291 0.048249
v -0.059942 0.089709 0.048249
v -0.041288 0.099679 0.048249
v -0.021049 0.105819 0.048249
v 0.000000 0.107892 0.048249
v 0.021049 0.105819 0.048249
v 0.041288 0.099679 0.048249
v 0.059942 0.089709 0.048249
v 0.076291 0.076291 0.048249
v 0.089709 0.059942 0.048249
v 0.099679 0.041288 0.048249
v 0.105819 0.021049 0.048249
v 0.107892 -0.000000 0.048249
v 0.105819 -0.021049 0.048249
v 0.099679 -0.041288 0.048249
v 0.089709 -0.059942 0.048249
v 0.076291 -0.076291 0.048249
v 0.059942 -0.089709 0.048249
v 0.041288 -0.099679 0.048249
v 0.021049 -0.105819 0.048249
v 0.000000 -0.107892 0.048249
v -0.021049 -0.105819 0.048249
v -0.041288 -0.099679 0.048249
v -0.059942 -0.089709 0.048249
v -0.076291 -0.076291 0.048249
v -0.089709 -0.059942 0.048249
v -0.099679 -0.041288 0.048249
v -0.105819 -0.021049 0.048249
v -0.163586 -0.000000 0.000390
v -0.160443 0.031914 0.000390
v -0.151134 0.062602 0.000390
v -0.136017 0.090883 0.000390
v -0.115673 0.115673 0.000390
v -0.090883 0.136017 0.000390
v -0.062602 0.151134 0.000390
v -0.031914 0.160443 0.000390
v 0.000000 0.163586 0.000390
v 0.031914 0.160443 0.000390
v 0.062602 0.151134 0.000390
v 0.090883 0.136017 0.000390
v 0.115673 0.115673 0.000390
v 0.136017 0.090883 0.000390
v 0.151134 0.062602 0.000390
v 0.160443 0.031914 0.000390
v 0.163586 -0.000000 0.000390
v 0.160443 -0.031914 0.000390
v 0.151134 -0.062602 0.000390
v 0.136017 -0.090883 0.000390
v 0.115673 -0.115673 0.000390
v 0.090883 -0.136017 0.000390
v 0.062602 -0.151134 0.000390
v 0.031914 -0.160443 0.000390
v 0.000000 -0.163586 0.000390
v -0.031914 -0.160443 0.000390
v -0.062602 -0.151134 0.000390
v -0.090883 -0.136017 0.000390
v -0.115673 -0.115673 0.000390
v -0.136017 -0.090883 0.000390
v -0.151134 -0.062602 0.000390
v -0.160443 -0.031914 0.000390
v -0.163586 -0.000000 0.048249
v -0.160443 0.031914 0.048249
v -0.151134 0.062602 0.048249
v -0.136017 0.090883 0.048249
v -0.115673 0.115673 0.048249
v -0.090883 0.136017 0.048249
v -0.062602 0.151134 0.048249
v -0.031914 0.160443 0.048249
v 0.000000 0.163586 0.048249
v 0.031914 0.160443 0.048249
v 0.062602 0.151134 0.048249
v 0.090883 0.136017 0.048249
v 0.115673 0.115673 0.048249
v 0.136017 0.090883 0.048249
v 0.151134 0.062602 0.048249
v 0.160443 0.031914 0.048249
v 0.163586 -0.000000 0.048249
v 0.160443 -0.031914 0.048249
v 0.151134 -0.062602 0.048249
v 0.136017 -0.090883 0.048249
v 0.115673 -0.115673 0.048249
v 0.090883 -0.136017 0.048249
v 0.062602 -0.151134 0.048249
v 0.031914 -0.160443 0.048249
v 0.000000 -0.163586 0.048249
v -0.031914 -0.160443 0.048249
v -0.062602 -0.151134 0.048249
v -0.090883 -0.136017 0.048249
v -0.115673 -0.115673 0.048249
v -0.136017 -0.090883 0.048249
v -0.151134 -0.062602 0.048249
v -0.160443 -0.031914 0.048249
v -0.105819 0.021049 0.058075
v -0.107892 -0.000000 0.058075
v -0.099679 0.041288 0.058075
v -0.089709 0.059942 0.058075
v -0.076291 0.076291 0.058075
v -0.059942 0.089709 0.058075
v -0.041288 0.099679 0.058075
v -0.021049 0.105819 0.058075
v 0.000000 0.107892 0.058075
v 0.021049 0.105819 0.058075
v 0.041288 0.099679 0.058075
v 0.059942 0.089709 0.058075
v 0.076291 0.076291 0.058075
v 0.089709 0.059942 0.058075
v 0.099679 0.041288 0.058075
v 0.105819 0.021049 0.058075
v 0.107892 -0.000000 0.058075
v 0.105819 -0.021049 0.058075
v 0.099679 -0.041288 0.058075
v 0.089709 -0.059942 0.058075
v 0.076291 -0.076291 0.058075
v 0.059942 -0.089709 0.058075
v 0.041288 -0.099679 0.058075
v 0.021049 -0.105819 0.058075
v 0.000000 -0.107892 0.058075
v -0.021049 -0.105819 0.058075
v -0.041288 -0.099679 0.058075
v -0.059942 -0.089709 0.058075
v -0.076291 -0.076291 0.058075
v -0.089709 -0.059942 0.058075
v -0.099679 -0.041288 0.058075
v -0.105819 -0.021049 0.058075
v -0.105819 -0.021049 0.048249
v -0.107892 -0.000000 0.048249
v -0.099679 -0.041288 0.048249
v -0.089709 -0.059942 0.048249
v -0.076291 -0.076291 0.048249
v -0.059942 -0.089709 0.048249
v -0.041288 -0.099679 0.048249
v -0.021049 -0.105819 0.048249
v 0.000000 -0.107892 0.048249
v 0.021049 -0.105819 0.048249
v 0.041288 -0.099679 0.048249
v 0.059942 -0.089709 0.048249
v 0.076291 -0.076291 0.048249
v 0.089709 -0.059942 0.048249
v 0.099679 -0.041288 0.048249
v 0.105819 -0.021049 0.048249
v 0.107892 -0.000000 0.048249
v 0.105819 0.021049 0.048249
v 0.099679 0.041288 0.048249
v 0.089709 0.059942 0.048249
v 0.076291 0.076291 0.048249
v 0.059942 0.089709 0.048249
v 0.041288 0.099679 0.048249
v 0.021049 0.105819 0.048249
v 0.000000 0.107892 0.048249
v -0.021049 0.105819 0.048249
v -0.041288 0.099679 0.048249
v -0.059942 0.089709 0.048249
v -0.076291 0.076291 0.048249
v -0.089709 0.059942 0.048249
v -0.099679 0.041288 0.048249
v -0.105819 0.021049 0.048249
v -0.163586 -0.000000 0.000390
v -0.160443 0.031914 0.000390
v -0.151134 0.062602 0.000390
v -0.136017 0.090883 0.000390
v -0.115673 0.115673 0.000390
v -0.090883 0.136017 0.000390
v -0.062602 0.151134 0.000390
v -0.031914 0.160443 0.000390
v 0.000000 0.163586 0.000390
v 0.031914 0.160443 0.000390
v 0.062602 0.151134 0.000390
v 0.090883 0.136017 0.000390
v 0.115673 0.115673 0.000390
v 0.136017 0.090883 0.000390
v 0.151134 0.062602 0.000390
v 0.160443 0.031914 0.000390
v 0.163586 -0.000000 0.000390
v 0.160443 -0.031914 0.000390
v 0.151134 -0.062602 0.000390
v 0.136017 -0.090883 0.000390
v 0.115673 -0.115673 0.000390
v 0.090883 -0.136017 0.000390
v 0.062602 -0.151134 0.000390
v 0.031914 -0.160443 0.000390
v 0.000000 -0.163586 0.000390
v -0.031914 -0.160443 0.000390
v -0.062602 -0.151134 0.000390
v -0.090883 -0.136017 0.000390
v -0.115673 -0.115673 0.000390
v -0.136017 -0.090883 0.000390
v -0.151134 -0.062602 0.000390
v -0.160443 -0.031914 0.000390
v -0.160443 -0.031914 0.048249
v -0.163586 -0.000000 0.048249
v -0.151134 -0.062602 0.048249
v -0.136017 -0.090883 0.048249
v -0.115673 -0.115673 0.048249
v -0.090883 -0.136017 0.048249
v -0.062602 -0.151134 0.048249
v -0.031914 -0.160443 0.048249
v 0.000000 -0.163586 0.048249
v 0.031914 -0.160443 0.048249
v 0.062602 -0.151134 0.048249
v 0.090883 -0.136017 0.048249
v 0.115673 -0.115673 0.048249
v 0.136017 -0.090883 0.048249
v 0.151134 -0.062602 0.048249
v 0.160443 -0.031914 0.048249
v 0.163586 -0.000000 0.048249
v 0.160443 0.031914 0.048249
v 0.151134 0.062602 0.048249
v 0.136017 0.090883 0.048249
v 0.115673 0.115673 0.048249
v 0.090883 0.136017 0.048249
v 0.062602 0.151134 0.048249
v 0.031914 0.160443 0.048249
v 0.000000 0.163586 0.048249
v -0.031914 0.160443 0.048249
v -0.062602 0.151134 0.048249
v -0.090883 0.136017 0.048249
v -0.115673 0.115673 0.048249
v -0.136017 0.090883 0.048249
v -0.151134 0.062602 0.048249
v -0.160443 0.031914 0.048249
vt 0.033765 0.879245
vt 0.174417 0.805606
vt 0.180557 0.814331
vt 0.057029 0.913944
vt 0.188266 0.821679
vt 0.086614 0.943419
vt 0.197243 0.827368
vt 0.121375 0.966530
vt 0.207138 0.831182
vt 0.159965 0.982389
vt 0.217566 0.832975
vt 0.200889 0.990387
vt 0.228120 0.832681
vt 0.242562 0.990219
vt 0.238391 0.830312
vt 0.283369 0.981902
vt 0.247980 0.825958
vt 0.321732 0.965771
vt 0.256492 0.819812
vt 0.356175 0.942467
vt 0.263608 0.812070
vt 0.385381 0.912904
vt 0.269039 0.803029
vt 0.408248 0.878240
vt 0.272591 0.792996
vt 0.423934 0.839825
vt 0.274094 0.782353
vt 0.431895 0.799134
vt 0.274153 0.771654
vt 0.431895 0.757706
vt 0.272073 0.761223
vt 0.423916 0.717020
vt 0.267963 0.751473
vt 0.408198 0.678614
vt 0.262002 0.742772
vt 0.385290 0.643966
vt 0.254437 0.735448
vt 0.356038 0.614427
vt 0.245566 0.729777
vt 0.321547 0.591155
vt 0.235739 0.725973
vt 0.283136 0.575071
vt 0.225338 0.724182
vt 0.242289 0.566814
vt 0.214765 0.724473
vt 0.200586 0.566718
vt 0.204432 0.726839
vt 0.159647 0.574794
vt 0.194740 0.731191
vt 0.121060 0.590735
vt 0.186066 0.737365
vt 0.086322 0.613928
vt 0.178747 0.745125
vt 0.056778 0.643475
vt 0.173070 0.754174
vt 0.033572 0.678234
vt 0.169256 0.764164
vt 0.017601 0.716864
vt 0.167454 0.774711
vt 0.009480 0.757871
vt 0.167735 0.785407
vt 0.009521 0.799674
vt 0.647393 0.602312
vt 0.625260 0.606714
vt 0.602694 0.606714
vt 0.580561 0.602312
vt 0.559712 0.593676
vt 0.540949 0.581139
vt 0.524992 0.565182
vt 0.512455 0.546419
vt 0.503819 0.525570
vt 0.499417 0.503437
vt 0.499417 0.480871
vt 0.503819 0.458738
vt 0.512455 0.437890
vt 0.524992 0.419126
vt 0.540949 0.403169
vt 0.559712 0.390632
vt 0.580561 0.381996
vt 0.602694 0.377594
vt 0.625260 0.377594
vt 0.647393 0.381996
vt 0.668242 0.390632
vt 0.687005 0.403169
vt 0.702962 0.419126
vt 0.715499 0.437889
vt 0.724135 0.458738
vt 0.728537 0.480871
vt 0.728537 0.503437
vt 0.724135 0.525570
vt 0.715499 0.546419
vt 0.702962 0.565182
vt 0.687005 0.581139
vt 0.668242 0.593676
vt 0.170086 0.795839
vt 0.017722 0.840659
vt 0.644480 0.201347
vt 0.644480 0.223913
vt 0.585344 0.229737
vt 0.585344 0.195522
vt 0.704776 0.111108
vt 0.686012 0.123645
vt 0.648315 0.077711
vt 0.676764 0.058702
vt 0.860562 0.266895
vt 0.869198 0.246046
vt 0.926062 0.263295
vt 0.912968 0.294906
vt 0.648882 0.246046
vt 0.592019 0.263295
vt 0.670055 0.139602
vt 0.624121 0.101905
vt 0.873600 0.223913
vt 0.932737 0.229737
vt 0.657518 0.266895
vt 0.605112 0.294906
vt 0.657518 0.158365
vt 0.605112 0.130354
vt 0.873600 0.201347
vt 0.932737 0.195522
vt 0.670055 0.285658
vt 0.624121 0.323355
vt 0.648882 0.179214
vt 0.592019 0.161965
vt 0.869198 0.179214
vt 0.926062 0.161965
vt 0.686012 0.301615
vt 0.648315 0.347549
vt 0.860562 0.158365
vt 0.912968 0.130354
vt 0.704776 0.314152
vt 0.676764 0.366558
vt 0.848025 0.139602
vt 0.893959 0.101905
vt 0.725624 0.322788
vt 0.708375 0.379651
vt 0.832068 0.123645
vt 0.869765 0.077711
vt 0.747757 0.327190
vt 0.741933 0.386326
vt 0.813305 0.111108
vt 0.841316 0.058702
vt 0.770323 0.327190
vt 0.776148 0.386326
vt 0.792456 0.102472
vt 0.809706 0.045609
vt 0.792456 0.322788
vt 0.809705 0.379651
vt 0.770324 0.098070
vt 0.776148 0.038933
vt 0.813305 0.314152
vt 0.841316 0.366558
vt 0.747757 0.098070
vt 0.741933 0.038933
vt 0.832068 0.301615
vt 0.869765 0.347549
vt 0.725624 0.102472
vt 0.708375 0.045608
vt 0.848025 0.285658
vt 0.893959 0.323355
vt 0.693251 0.966343
vt 0.661640 0.953250
vt 0.633191 0.934241
vt 0.608997 0.910047
vt 0.589988 0.881598
vt 0.576895 0.849987
vt 0.570220 0.816429
vt 0.570220 0.782214
vt 0.576895 0.748657
vt 0.589988 0.717046
vt 0.608997 0.688597
vt 0.633191 0.664403
vt 0.661640 0.645394
vt 0.693251 0.632300
vt 0.726808 0.625625
vt 0.761024 0.625625
vt 0.794581 0.632300
vt 0.826192 0.645394
vt 0.854641 0.664403
vt 0.878835 0.688597
vt 0.897844 0.717046
vt 0.910938 0.748656
vt 0.917613 0.782214
vt 0.917613 0.816429
vt 0.910938 0.849987
vt 0.897844 0.881598
vt 0.878835 0.910047
vt 0.854641 0.934241
vt 0.826192 0.953250
vt 0.794582 0.966343
vt 0.761024 0.973018
vt 0.726808 0.973018
vt 0.257065 0.516568
vt 0.263448 0.453028
vt 0.300196 0.453983
vt 0.304997 0.516741
vt 0.209654 0.508268
vt 0.227230 0.447519
vt 0.164403 0.491150
vt 0.193209 0.434977
vt 0.123213 0.465428
vt 0.162522 0.415954
vt 0.087847 0.431964
vt 0.136263 0.391193
vt 0.059790 0.392053
vt 0.115443 0.361662
vt 0.040201 0.347288
vt 0.100888 0.328522
vt 0.029874 0.299454
vt 0.093187 0.293080
vt 0.029224 0.250451
vt 0.092658 0.256737
vt 0.038280 0.202217
vt 0.099334 0.220923
vt 0.056687 0.156647
vt 0.112966 0.187049
vt 0.083727 0.115525
vt 0.133029 0.156444
vt 0.118350 0.080457
vt 0.158752 0.130306
vt 0.159210 0.052808
vt 0.189139 0.109659
vt 0.204727 0.033653
vt 0.223017 0.095308
vt 0.253138 0.023736
vt 0.259078 0.087816
vt 0.302574 0.023445
vt 0.295927 0.087474
vt 0.351123 0.032795
vt 0.332141 0.094300
vt 0.396908 0.051426
vt 0.366322 0.108029
vt 0.438154 0.078620
vt 0.397147 0.128128
vt 0.473261 0.113323
vt 0.423425 0.153816
vt 0.500864 0.154185
vt 0.444140 0.184090
vt 0.519887 0.199614
vt 0.458493 0.217768
vt 0.529588 0.247831
vt 0.465932 0.253530
vt 0.529588 0.296940
vt 0.466179 0.289972
vt 0.519891 0.345002
vt 0.459237 0.325660
vt 0.500888 0.390108
vt 0.445399 0.359186
vt 0.473348 0.430457
vt 0.425231 0.389228
vt 0.438402 0.464429
vt 0.399551 0.414604
vt 0.397510 0.490677
vt 0.369384 0.434323
vt 0.352411 0.508245
vt 0.335881 0.447626
vn -1.0000 0.0000 0.0000
vn -0.9808 0.1951 0.0000
vn -0.9239 0.3827 0.0000
vn -0.8314 0.5556 0.0000
vn -0.7071 0.7071 0.0000
vn -0.5556 0.8314 0.0000
vn -0.3827 0.9239 0.0000
vn -0.1951 0.9808 0.0000
vn 0.0000 1.0000 0.0000
vn 0.1951 0.9808 0.0000
vn 0.3827 0.9239 0.0000
vn 0.5556 0.8314 0.0000
vn 0.7071 0.7071 0.0000
vn 0.8314 0.5556 0.0000
vn 0.9239 0.3827 0.0000
vn 0.9808 0.1951 0.0000
vn 1.0000 0.0000 0.0000
vn 0.9808 -0.1951 0.0000
vn 0.9239 -0.3827 0.0000
vn 0.8314 -0.5556 0.0000
vn 0.7071 -0.7071 0.0000
vn 0.5556 -0.8314 0.0000
vn 0.3827 -0.9239 0.0000
vn 0.1951 -0.9808 0.0000
vn 0.0000 -1.0000 0.0000
vn -0.1951 -0.9808 0.0000
vn -0.3827 -0.9239 0.0000
vn -0.5556 -0.8314 0.0000
vn -0.7071 -0.7071 0.0000
vn -0.8314 -0.5556 0.0000
vn -0.9239 -0.3827 0.0000
vn 0.0000 0.0000 1.0000
vn -0.9808 -0.1951 0.0000
vn 0.0000 0.0000 -1.0000
usemtl Material.001
s 1
f 162/1/1 130/2/1 129/3/2 34/4/2
f 34/4/2 129/3/2 131/5/3 35/6/3
f 35/6/3 131/5/3 132/7/4 36/8/4
f 36/8/4 132/7/4 133/9/5 37/10/5
f 37/10/5 133/9/5 134/11/6 38/12/6
f 38/12/6 134/11/6 135/13/7 39/14/7
f 39/14/7 135/13/7 136/15/8 40/16/8
f 40/16/8 136/15/8 137/17/9 41/18/9
f 41/18/9 137/17/9 138/19/10 42/20/10
f 42/20/10 138/19/10 139/21/11 43/22/11
f 43/22/11 139/21/11 140/23/12 44/24/12
f 44/24/12 140/23/12 141/25/13 45/26/13
f 45/26/13 141/25/13 142/27/14 46/28/14
f 46/28/14 142/27/14 143/29/15 47/30/15
f 47/30/15 143/29/15 144/31/16 48/32/16
f 48/32/16 144/31/16 145/33/17 49/34/17
f 49/34/17 145/33/17 146/35/18 50/36/18
f 50/36/18 146/35/18 147/37/19 51/38/19
f 51/38/19 147/37/19 148/39/20 52/40/20
f 52/40/20 148/39/20 149/41/21 53/42/21
f 53/42/21 149/41/21 150/43/22 54/44/22
f 54/44/22 150/43/22 151/45/23 55/46/23
f 55/46/23 151/45/23 152/47/24 56/48/24
f 56/48/24 152/47/24 153/49/25 57/50/25
f 57/50/25 153/49/25 154/51/26 58/52/26
f 58/52/26 154/51/26 155/53/27 59/54/27
f 59/54/27 155/53/27 156/55/28 60/56/28
f 60/56/28 156/55/28 157/57/29 61/58/29
f 61/58/29 157/57/29 158/59/30 62/60/30
f 62/60/30 158/59/30 159/61/31 63/62/31
f 2/63/32 1/64/32 160/65/32 31/66/32 30/67/32 29/68/32 28/69/32 27/70/32 26/71/32 25/72/32 24/73/32 23/74/32 22/75/32 21/76/32 20/77/32 19/78/32 18/79/32 17/80/32 16/81/32 15/82/32 14/83/32 13/84/32 12/85/32 11/86/32 10/87/32 9/88/32 8/89/32 7/90/32 6/91/32 5/92/32 4/93/32 3/94/32
f 63/62/31 159/61/31 32/95/33 64/96/33
f 64/96/33 32/95/33 130/2/1 162/1/1
f 33/97/32 192/98/32 256/99/32 226/100/32
f 166/101/32 165/102/32 229/103/32 230/104/32
f 179/105/32 178/106/32 242/107/32 243/108/32
f 192/98/32 191/109/32 255/110/32 256/99/32
f 165/102/32 164/111/32 228/112/32 229/103/32
f 178/106/32 177/113/32 241/114/32 242/107/32
f 191/109/32 190/115/32 254/116/32 255/110/32
f 164/111/32 163/117/32 227/118/32 228/112/32
f 177/113/32 176/119/32 240/120/32 241/114/32
f 190/115/32 189/121/32 253/122/32 254/116/32
f 163/117/32 161/123/32 225/124/32 227/118/32
f 176/119/32 175/125/32 239/126/32 240/120/32
f 189/121/32 188/127/32 252/128/32 253/122/32
f 161/123/32 33/97/32 226/100/32 225/124/32
f 175/125/32 174/129/32 238/130/32 239/126/32
f 188/127/32 187/131/32 251/132/32 252/128/32
f 174/129/32 173/133/32 237/134/32 238/130/32
f 187/131/32 186/135/32 250/136/32 251/132/32
f 173/133/32 172/137/32 236/138/32 237/134/32
f 186/135/32 185/139/32 249/140/32 250/136/32
f 172/137/32 171/141/32 235/142/32 236/138/32
f 185/139/32 184/143/32 248/144/32 249/140/32
f 171/141/32 170/145/32 234/146/32 235/142/32
f 184/143/32 183/147/32 247/148/32 248/144/32
f 170/145/32 169/149/32 233/150/32 234/146/32
f 183/147/32 182/151/32 246/152/32 247/148/32
f 169/149/32 168/153/32 232/154/32 233/150/32
f 182/151/32 181/155/32 245/156/32 246/152/32
f 168/153/32 167/157/32 231/158/32 232/154/32
f 181/155/32 180/159/32 244/160/32 245/156/32
f 167/157/32 166/101/32 230/104/32 231/158/32
f 180/159/32 179/105/32 243/108/32 244/160/32
f 193/161/34 194/162/34 195/163/34 196/164/34 197/165/34 198/166/34 199/167/34 200/168/34 201/169/34 202/170/34 203/171/34 204/172/34 205/173/34 206/174/34 207/175/34 208/176/34 209/177/34 210/178/34 211/179/34 212/180/34 213/181/34 214/182/34 215/183/34 216/184/34 217/185/34 218/186/34 219/187/34 220/188/34 221/189/34 222/190/34 223/191/34 224/192/34
f 96/193/33 128/194/33 97/195/1 65/196/1
f 95/197/31 127/198/31 128/194/33 96/193/33
f 94/199/30 126/200/30 127/198/31 95/197/31
f 93/201/29 125/202/29 126/200/30 94/199/30
f 92/203/28 124/204/28 125/202/29 93/201/29
f 91/205/27 123/206/27 124/204/28 92/203/28
f 90/207/26 122/208/26 123/206/27 91/205/27
f 89/209/25 121/210/25 122/208/26 90/207/26
f 88/211/24 120/212/24 121/210/25 89/209/25
f 87/213/23 119/214/23 120/212/24 88/211/24
f 86/215/22 118/216/22 119/214/23 87/213/23
f 85/217/21 117/218/21 118/216/22 86/215/22
f 84/219/20 116/220/20 117/218/21 85/217/21
f 83/221/19 115/222/19 116/220/20 84/219/20
f 82/223/18 114/224/18 115/222/19 83/221/19
f 81/225/17 113/226/17 114/224/18 82/223/18
f 80/227/16 112/228/16 113/226/17 81/225/17
f 79/229/15 111/230/15 112/228/16 80/227/16
f 78/231/14 110/232/14 111/230/15 79/229/15
f 77/233/13 109/234/13 110/232/14 78/231/14
f 76/235/12 108/236/12 109/234/13 77/233/13
f 75/237/11 107/238/11 108/236/12 76/235/12
f 74/239/10 106/240/10 107/238/11 75/237/11
f 73/241/9 105/242/9 106/240/10 74/239/10
f 72/243/8 104/244/8 105/242/9 73/241/9
f 71/245/7 103/246/7 104/244/8 72/243/8
f 70/247/6 102/248/6 103/246/7 71/245/7
f 69/249/5 101/250/5 102/248/6 70/247/6
f 68/251/4 100/252/4 101/250/5 69/249/5
f 67/253/3 99/254/3 100/252/4 68/251/4
f 66/255/2 98/256/2 99/254/3 67/253/3
f 65/196/1 97/195/1 98/256/2 66/255/2
